<svg width="80" height="80" viewBox="0 0 80 80" fill="none" xmlns="http://www.w3.org/2000/svg">
<path d="M19.3324 56.9209C13.634 56.9209 8.99679 52.2864 8.99679 46.5853C8.99679 40.8895 13.634 36.2523 19.3324 36.2523C20.8043 36.2523 21.999 35.0576 21.999 33.5858C21.999 32.1139 20.8043 30.9192 19.3324 30.9192C10.6927 30.9192 3.66367 37.9456 3.66367 46.5853C3.66367 55.225 10.6927 62.254 19.3324 62.254C20.8043 62.254 21.999 61.062 21.999 59.5875C21.999 58.113 20.8044 56.9209 19.3324 56.9209Z" fill="#22BAC9"/>
<path d="M36.1556 0.00268555H29.3586C22.0202 0.00268555 16.0497 6.00784 16.0497 13.3889C16.0497 13.773 16.0656 14.1596 16.1003 14.5436C10.0339 17.1969 5.97266 23.2527 5.97266 30.0178C5.97266 32.9511 6.73531 35.8389 8.18063 38.3722C8.90859 39.6496 10.5378 40.0975 11.8178 39.3669C13.0952 38.6363 13.5405 37.0069 12.8125 35.7297C11.8259 34.0017 11.3059 32.0258 11.3059 30.0178C11.3059 24.8233 14.8045 20.2422 19.815 18.8742C20.4977 18.6849 21.0816 18.2316 21.4309 17.6157C21.7803 16.9997 21.8709 16.2664 21.6789 15.5838C21.4895 14.8985 21.383 14.1199 21.383 13.3892C21.383 8.9494 24.9616 5.33612 29.3588 5.33612H36.1558C36.7611 5.33612 37.3317 5.98144 37.3317 6.66409V70.8297C37.3317 72.9416 35.6091 74.6642 33.4945 74.6642C31.38 74.6642 29.6573 72.9416 29.6733 70.6403C29.7133 69.7871 29.34 68.963 28.6733 68.4271C28.0039 67.8885 27.1133 67.7071 26.2947 67.9391C22.1455 69.0885 18.4203 65.9419 18.4203 61.9739C18.4203 61.3072 18.5216 60.6539 18.727 60.0407C19.1909 58.6407 18.4311 57.1341 17.0338 56.67C15.6258 56.2114 14.1245 56.966 13.6631 58.3633C13.2791 59.5206 13.0845 60.7366 13.0845 61.9738C13.0845 68.3363 18.2603 73.5094 24.6228 73.5094C24.6575 73.5094 24.6895 73.5094 24.7242 73.5094C25.8734 77.2639 29.372 79.9972 33.4945 79.9972C38.513 79.9972 42.6036 75.9441 42.6648 70.9416C42.6648 70.923 42.6648 70.9016 42.6648 70.8802V6.66378C42.6648 3.05331 39.6836 0.00268555 36.1556 0.00268555Z" fill="#22BAC9"/>
<path d="M60.6674 30.9189C59.1927 30.9189 58.0009 32.1136 58.0009 33.5855C58.0009 35.0575 59.1929 36.2521 60.6674 36.2521C66.3685 36.2521 71.003 40.8866 71.003 46.585C71.003 52.2861 66.3685 56.9206 60.6674 56.9206C59.1927 56.9206 58.0009 58.1127 58.0009 59.5872C58.0009 61.0619 59.1929 62.2538 60.6674 62.2538C69.3071 62.2538 76.3362 55.2247 76.3362 46.585C76.3362 37.9482 69.3071 30.9189 60.6674 30.9189Z" fill="#22BAC9"/>
<path d="M66.4538 58.3393C65.9926 56.9393 64.4779 56.1661 63.086 56.6434C61.686 57.1047 60.926 58.614 61.3901 60.0114C61.5581 60.5287 61.5742 61.2967 61.5742 61.9767C61.5742 65.9392 57.7876 69.0804 53.7051 67.9445C52.8704 67.7071 51.9985 67.9925 51.3292 68.5231C50.6598 69.059 50.2945 69.979 50.3371 70.8323C50.3371 72.9468 48.6171 74.6668 46.5026 74.6668C44.3881 74.6668 42.6654 72.9468 42.6654 70.8323V69.9523C42.6654 68.4776 41.4707 67.2857 39.9988 67.2857C38.527 67.2857 37.3323 68.4778 37.3323 69.9523V70.8323C37.3323 75.8881 41.4468 80 46.5026 80C50.6277 80 54.1237 77.264 55.2756 73.5121C61.7981 73.5868 66.9098 68.3682 66.9098 61.9765C66.9099 60.8832 66.8752 59.6114 66.4538 58.3393Z" fill="#22BAC9"/>
<path d="M63.894 14.5434C63.9287 14.1567 63.9446 13.7702 63.9446 13.3861C63.9446 6.00516 57.9768 0 50.6384 0H43.836C40.2495 0.00265625 37.3323 2.95984 37.3323 6.58906C37.3323 8.06094 38.527 9.25563 39.9988 9.25563C41.4709 9.25563 42.6654 8.06094 42.6654 6.58906C42.6654 5.92234 43.2174 5.33312 43.8387 5.33312H50.6384C55.0329 5.33312 58.6115 8.94641 58.6115 13.3862C58.6115 14.1142 58.5048 14.8983 58.3156 15.5916C58.1288 16.2769 58.2196 17.0048 58.5688 17.6208C58.9181 18.2367 59.4995 18.6873 60.1821 18.8741C65.1899 20.242 68.6912 24.8258 68.6912 30.0177C68.6912 32.0203 68.1712 33.9963 67.1846 35.7322C66.4566 37.0122 66.9046 38.6388 68.1846 39.3667C68.6006 39.6041 69.0513 39.7161 69.4993 39.7161C70.4273 39.7161 71.3285 39.2308 71.8193 38.3669C73.262 35.8309 74.0246 32.9431 74.0246 30.0178C74.0243 23.2552 69.9604 17.1967 63.894 14.5434Z" fill="#22BAC9"/>
<path d="M60.2574 15.6768C57.0176 12.4396 51.3671 12.4343 48.1218 15.6768C47.0792 16.7195 47.0792 18.4101 48.1218 19.45C49.1645 20.49 50.8498 20.49 51.8923 19.45C53.1162 18.2234 55.2629 18.2234 56.4868 19.45C57.7534 20.7165 57.7534 22.7779 56.4868 24.0445C55.4442 25.0871 55.4442 26.7725 56.4868 27.815C57.0068 28.335 57.6895 28.5962 58.3721 28.5962C59.0521 28.5962 59.7348 28.335 60.2574 27.8123C63.604 24.4657 63.604 19.0234 60.2574 15.6768Z" fill="#22BAC9"/>
<path d="M34.8519 43.5478C33.2307 41.9265 31.076 41.0359 28.7828 41.0359H28.7802C26.4896 41.0359 24.335 41.9292 22.7191 43.5478C21.0978 45.1664 20.2072 47.3237 20.2072 49.6142C20.2072 51.9048 21.0978 54.062 22.7191 55.6806C23.2391 56.2006 23.9217 56.4618 24.6044 56.4618C25.2871 56.4618 25.9697 56.2006 26.4897 55.6832C27.5324 54.6406 27.5324 52.9553 26.4897 51.9128C25.2232 50.6462 25.2232 48.5848 26.4897 47.3156C27.103 46.7049 27.9163 46.369 28.783 46.369C29.6524 46.369 30.4683 46.705 31.0789 47.3184C32.1216 48.361 33.8096 48.361 34.8521 47.3184C35.8919 46.2784 35.8919 44.5904 34.8519 43.5478Z" fill="#22BAC9"/>
<path d="M51.795 55.7422C50.3203 55.7422 49.1285 56.9342 49.1285 58.4088C49.1285 60.198 47.6699 61.6539 45.8778 61.6539C44.0858 61.6539 42.63 60.198 42.63 58.4088C42.63 56.9341 41.4353 55.7422 39.9634 55.7422C38.4916 55.7422 37.2969 56.9342 37.2969 58.4088C37.2969 63.1392 41.1473 66.9872 45.878 66.9872C50.6111 66.9872 54.4617 63.1394 54.4617 58.4088C54.4616 56.9341 53.2696 55.7422 51.795 55.7422Z" fill="#22BAC9"/>
<path d="M39.9966 15.5835C38.5247 15.5835 37.33 16.7782 37.33 18.2501C37.33 20.0393 35.8714 21.4952 34.0822 21.4952C32.293 21.4952 30.837 20.0393 30.837 18.2501C30.837 16.7782 29.6423 15.5835 28.1705 15.5835C26.6984 15.5835 25.5039 16.7782 25.5039 18.2501C25.5039 22.9805 29.3517 26.8285 34.0823 26.8285C38.8155 26.8285 42.6634 22.9807 42.6634 18.2501C42.6633 16.7782 41.4686 15.5835 39.9966 15.5835Z" fill="#22BAC9"/>
</svg>
