<svg width="99" height="46" viewBox="0 0 99 46" fill="none" xmlns="http://www.w3.org/2000/svg">
<g clip-path="url(#clip0)">
<path d="M17.3685 14.0538C20.008 14.0538 22.2239 15.8105 22.2239 19.0637C22.2239 19.2914 22.2239 19.4541 22.1913 19.7794H14.2728C14.3705 21.4385 15.7066 22.5121 17.3685 22.5121C18.7697 22.5121 19.7473 21.8614 20.2687 20.9831L21.9632 22.1867C21.0508 23.6181 19.4866 24.529 17.3685 24.529C14.3054 24.529 12.0895 22.3494 12.0895 19.2914C12.0895 16.331 14.3054 14.0538 17.3685 14.0538ZM14.3705 18.1528H19.9754C19.7473 16.6889 18.5742 15.9081 17.2707 15.9081C15.9673 15.9081 14.6964 16.6563 14.3705 18.1528ZM18.6394 9.20654H21.3115L18.3135 13.0453H16.619L18.6394 9.20654Z" fill="#065C9E"/>
<path d="M47.7066 14.0537C49.173 14.0537 50.3787 14.8019 50.9327 15.6152V14.2489H53.1486V24.3338H50.9327V22.9674C50.3787 23.7807 49.1404 24.529 47.7066 24.529C44.9367 24.529 42.8512 22.1541 42.8512 19.2913C42.8512 16.4285 44.9367 14.0537 47.7066 14.0537ZM48.0976 16.0707C46.3054 16.0707 45.0997 17.4696 45.0997 19.2913C45.0997 21.1131 46.3054 22.512 48.0976 22.512C49.8899 22.512 51.0956 21.1131 51.0956 19.2913C51.1282 17.4696 49.8899 16.0707 48.0976 16.0707Z" fill="#065C9E"/>
<path d="M65.0109 14.249H67.2267V16.0382C67.6178 14.8996 68.7257 14.1514 69.8988 14.1514C70.1921 14.1514 70.4528 14.1839 70.7787 14.2164V16.4937C70.3876 16.3635 70.0618 16.2985 69.6707 16.2985C68.3999 16.2985 67.2593 17.372 67.2593 19.389V24.3013H65.0435V14.249H65.0109Z" fill="#065C9E"/>
<path d="M83.3887 14.0537C86.0282 14.0537 88.2441 15.8104 88.2441 19.0636C88.2441 19.2913 88.2441 19.454 88.2115 19.7793H80.2604C80.3582 21.4384 81.6942 22.512 83.3562 22.512C84.7574 22.512 85.735 21.8614 86.2564 20.983L87.9508 22.1867C87.0384 23.6181 85.4743 24.529 83.3562 24.529C80.293 24.529 78.0771 22.3493 78.0771 19.2913C78.1097 16.3309 80.293 14.0537 83.3887 14.0537ZM80.3908 18.1527H85.9957C85.7676 16.6888 84.5944 15.908 83.291 15.908C81.9875 15.908 80.6841 16.6563 80.3908 18.1527Z" fill="#065C9E"/>
<path d="M46.9597 46C45.1674 46 43.6358 45.2843 42.8864 43.8529L44.5157 42.6817C44.9067 43.5601 45.9169 44.0806 46.9271 44.0806C47.7092 44.0806 48.3935 43.7227 48.3935 43.007C48.3935 42.4215 48.035 42.0636 46.8293 41.7058L45.9495 41.478C44.1898 40.9901 43.2774 39.884 43.31 38.3875C43.3426 36.5983 44.9067 35.4922 46.9271 35.4922C48.4586 35.4922 49.6318 36.1103 50.3487 37.2164L48.8171 38.3875C48.3609 37.7694 47.7417 37.3465 46.8945 37.3465C46.2428 37.3465 45.5259 37.7044 45.5259 38.2899C45.5259 38.7779 45.754 39.2008 46.7316 39.4936L47.7743 39.7864C49.5666 40.3069 50.6094 41.1853 50.6094 42.8444C50.6094 44.7963 49.0452 46 46.9597 46Z" fill="#065C9E"/>
<path d="M52.6594 35.72H54.8752V41.3806C54.8752 43.0072 55.5922 43.9831 56.8956 43.9831C58.3294 43.9831 59.3722 42.8445 59.3722 40.6649V35.6875H61.5881V45.7724H59.3722V44.406C58.7856 45.4145 57.7103 45.9676 56.4068 45.9676C54.0932 45.9676 52.6594 44.3084 52.6594 41.7059V35.72Z" fill="#065C9E"/>
<path d="M73.8073 46C72.0151 46 70.4835 45.2843 69.734 43.8529L71.3633 42.6817C71.7544 43.5601 72.7646 44.0806 73.7747 44.0806C74.5568 44.0806 75.2411 43.7227 75.2411 43.007C75.2411 42.4215 74.8827 42.0636 73.677 41.7058L72.7971 41.478C71.0375 40.9901 70.125 39.884 70.1576 38.3875C70.1902 36.5983 71.7544 35.4922 73.7747 35.4922C75.3063 35.4922 76.4794 36.1103 77.1963 37.2164L75.6648 38.3875C75.2085 37.7694 74.5894 37.3465 73.7422 37.3465C73.0904 37.3465 72.3735 37.7044 72.3735 38.2899C72.3735 38.7779 72.6016 39.2008 73.5792 39.4936L74.622 39.7864C76.4143 40.3069 77.457 41.1853 77.457 42.8444C77.4896 44.7963 75.8929 46 73.8073 46Z" fill="#065C9E"/>
<path d="M83.2917 46C81.4994 46 79.9679 45.2843 79.2184 43.8529L80.8477 42.6817C81.2387 43.5601 82.2489 44.0806 83.2591 44.0806C84.0412 44.0806 84.7255 43.7227 84.7255 43.007C84.7255 42.4215 84.367 42.0636 83.1613 41.7058L82.2815 41.478C80.5218 40.9901 79.6094 39.884 79.642 38.3875C79.6746 36.5983 81.2387 35.4922 83.2591 35.4922C84.7907 35.4922 85.9638 36.1103 86.6807 37.2164L85.1491 38.3875C84.6929 37.7694 84.0738 37.3465 83.2265 37.3465C82.5748 37.3465 81.8579 37.7044 81.8579 38.2899C81.8579 38.7779 82.086 39.2008 83.0636 39.4936L84.1064 39.7864C85.8986 40.3069 86.9414 41.1853 86.9414 42.8444C86.9414 44.7963 85.3772 46 83.2917 46Z" fill="#065C9E"/>
<path d="M94.0105 35.5249C96.65 35.5249 98.8659 37.2816 98.8659 40.5348C98.8659 40.7625 98.8659 40.9252 98.8333 41.2505H90.8821C90.9799 42.9096 92.316 43.9832 93.9779 43.9832C95.3791 43.9832 96.3567 43.3325 96.8781 42.4542L98.5726 43.6579C97.6602 45.0893 96.096 46.0002 93.9779 46.0002C90.9147 46.0002 88.6989 43.8205 88.6989 40.7625C88.764 37.8021 90.9473 35.5249 94.0105 35.5249ZM91.0451 39.6239H96.65C96.4219 38.16 95.2487 37.3792 93.9453 37.3792C92.6418 37.3792 91.3384 38.1275 91.0451 39.6239Z" fill="#065C9E"/>
<path d="M5.47453 14.0537C4.00814 14.0537 2.80244 14.8019 2.21588 15.6152V14.2489H0V27.5219V28.5304V29.7341C1.23829 29.7341 2.21588 28.7581 2.21588 27.5219V22.9674C2.76985 23.7807 4.00814 24.529 5.47453 24.529C8.24438 24.529 10.3299 22.1541 10.3299 19.2913C10.3299 16.4285 8.24438 14.0537 5.47453 14.0537ZM5.08349 22.512C3.29124 22.512 2.05295 21.1131 2.05295 19.2913C2.05295 17.4696 3.29124 16.0707 5.08349 16.0707C6.87575 16.0707 8.08145 17.4696 8.08145 19.2913C8.08145 21.1131 6.84316 22.512 5.08349 22.512Z" fill="#065C9E"/>
<path d="M34.6411 7.84009C33.4028 7.84009 32.4252 8.81604 32.4252 10.0523V15.5827C31.8712 14.7694 30.6329 14.0211 29.1991 14.0211C26.4293 14.0211 24.3438 16.396 24.3438 19.2588C24.3438 22.1216 26.3967 24.5289 29.1666 24.5289C30.6329 24.5289 31.8386 23.7807 32.3926 22.9674V24.3337H34.6085V10.0523V7.84009H34.6411ZM29.5902 22.5119C27.7979 22.5119 26.5922 21.1131 26.5922 19.2913C26.5922 17.4695 27.7979 16.0706 29.5902 16.0706C31.3824 16.0706 32.5881 17.4695 32.5881 19.2913C32.5881 21.1131 31.3824 22.5119 29.5902 22.5119Z" fill="#065C9E"/>
<path d="M62.4046 16.2008V14.2164H59.5044V11.5162V10.4102C58.2661 10.4102 57.2885 11.4186 57.2885 12.6223V14.2164H55.203V16.2008H57.2885V21.0481C57.2885 23.3253 58.7875 24.3988 60.7427 24.3988C61.427 24.3988 61.9484 24.3338 62.4046 24.1711V22.1867C62.0787 22.3168 61.6225 22.3819 61.1989 22.3819C60.0584 22.3819 59.5044 21.9264 59.5044 20.6577V16.2008H62.4046Z" fill="#065C9E"/>
<path d="M39.1671 7.77515C40.7312 7.77515 42.0021 9.04389 42.0021 10.6054C42.0021 12.1669 40.7312 13.4357 39.1671 13.4357C37.6029 13.4357 36.332 12.1669 36.332 10.6054C36.332 9.04389 37.6029 7.77515 39.1671 7.77515Z" fill="#065C9E"/>
<path d="M74.4263 13.338C78.1157 13.338 81.1066 10.3522 81.1066 6.66902C81.1066 2.98582 78.1157 0 74.4263 0C70.7369 0 67.7461 2.98582 67.7461 6.66902C67.7461 10.3522 70.7369 13.338 74.4263 13.338Z" fill="#065C9E"/>
<path d="M74.4243 14.3139C74.0333 14.3139 73.6749 14.2814 73.3164 14.2163V24.3012H75.5323V14.2163C75.1413 14.2814 74.7828 14.3139 74.4243 14.3139Z" fill="#065C9E"/>
<path d="M66.021 34.8741C68.5766 34.8741 70.6483 32.8058 70.6483 30.2545C70.6483 27.7032 68.5766 25.635 66.021 25.635C63.4654 25.635 61.3937 27.7032 61.3937 30.2545C61.3937 32.8058 63.4654 34.8741 66.021 34.8741Z" fill="#065C9E"/>
<path d="M66.0204 35.8173C65.6294 35.8173 65.2709 35.7848 64.9125 35.7197V45.8046H67.1284V35.7197C66.7699 35.7848 66.3789 35.8173 66.0204 35.8173Z" fill="#065C9E"/>
<path d="M39.1704 14.4117C38.7794 14.4117 38.421 14.3466 38.0625 14.249V24.3339H40.2784V14.249C39.9199 14.3466 39.5615 14.4117 39.1704 14.4117Z" fill="#065C9E"/>
</g>
<defs>
<clipPath id="clip0">
<rect width="98.9" height="46" fill="white"/>
</clipPath>
</defs>
</svg>
