<svg width="56" height="80" viewBox="0 0 56 80" fill="none" xmlns="http://www.w3.org/2000/svg">
<path d="M28.5044 1.00668C28.4716 1.00583 28.4386 1.00571 28.4057 1.00503C28.3103 1.00364 28.2153 1.00065 28.1198 1.00024C28.08 1.00008 28.0401 1 28.0003 1H27.9991C20.8384 1.00023 13.9711 3.77826 8.90778 8.72298C3.84448 13.6677 0.999978 20.3741 1 27.3668C1 40.8376 3.41772 52.3859 8.18608 61.691C12.7943 70.6835 18.4286 75.1866 21.377 77.0704C23.3428 78.3278 25.6412 78.9983 27.9911 79C30.341 79.0017 32.6404 78.3345 34.6081 77.0801C37.5459 75.2054 43.1621 70.7242 47.769 61.7753C52.5339 52.5196 54.9668 41.0358 54.9999 27.643C55.0358 13.1417 43.185 1.27242 28.5044 1.00668ZM48.2502 14.3645V19.4568C48.2511 23.2209 47.4172 26.9406 45.8058 30.3601C45.4013 29.7558 44.8985 29.22 44.3172 28.774C46.0762 25.8364 46.9688 22.4809 46.8961 19.0786C46.8234 15.6764 45.7884 12.3601 43.9055 9.49667C45.5709 10.9215 47.0322 12.5589 48.2502 14.3645V14.3645ZM28.0001 46.7078L19.439 41.0229C19.0128 40.7398 18.597 40.4458 18.1917 40.1407C19.7904 39.5585 21.1058 38.4096 21.8762 36.9228C25.8468 38.2438 30.1535 38.2438 34.1241 36.9228C34.8944 38.4096 36.2099 39.5585 37.8086 40.1407C37.4026 40.4449 36.9869 40.739 36.5613 41.0229L28.0001 46.7078ZM11.8 19.4568C11.8049 15.2625 13.5132 11.2414 16.5503 8.27554C19.5873 5.30973 23.705 3.64144 28 3.63668H28.0003C28.1205 3.63668 28.2403 3.63858 28.36 3.64115C28.3833 3.64148 28.4065 3.64191 28.4298 3.64231C28.6372 3.64762 28.8434 3.65785 29.0488 3.67074C28.7254 3.74288 28.4405 3.92885 28.2485 4.19313C28.0566 4.4574 27.9711 4.78146 28.0083 5.1034C28.0456 5.42535 28.2029 5.72261 28.4504 5.93843C28.6978 6.15424 29.018 6.27348 29.3498 6.27336C29.7077 6.27376 30.0509 6.41279 30.3039 6.65994C30.557 6.90709 30.6994 7.24218 30.6998 7.5917V8.91004C30.6994 9.25957 30.557 9.59466 30.3039 9.84181C30.0509 10.089 29.7077 10.228 29.3498 10.2284H25.9748C25.7958 10.2284 25.6241 10.1589 25.4975 10.0353C25.3709 9.9117 25.2998 9.74404 25.2998 9.56921C25.2998 9.39439 25.3709 9.22673 25.4975 9.10311C25.6241 8.97949 25.7958 8.91004 25.9748 8.91004H26.6498C27.0078 8.91004 27.3512 8.77115 27.6044 8.52391C27.8576 8.27667 27.9998 7.94135 27.9998 7.5917C27.9998 7.24206 27.8576 6.90673 27.6044 6.6595C27.3512 6.41226 27.0078 6.27336 26.6498 6.27336H25.9748C25.0797 6.27336 24.2212 6.6206 23.5883 7.2387C22.9553 7.85679 22.5998 8.6951 22.5998 9.56921C22.5998 10.4433 22.9553 11.2816 23.5883 11.8997C24.2212 12.5178 25.0797 12.8651 25.9748 12.8651H29.3498C30.4236 12.8639 31.453 12.4468 32.2122 11.7054C32.9715 10.9639 33.3986 9.95862 33.3998 8.91004V7.5917C33.3987 6.76803 33.1347 5.96519 32.6445 5.2949C32.1543 4.6246 31.4624 4.12021 30.6649 3.8519C33.2687 4.2758 35.7269 5.31464 37.8257 6.87804C39.9245 8.44144 41.6003 10.482 42.7072 12.8222C43.8141 15.1624 44.3186 17.7313 44.1768 20.3054C44.035 22.8794 43.2512 25.3806 41.8937 27.5914C40.8938 27.3297 39.8456 27.2962 38.8303 27.4935C37.8151 27.6908 36.8599 28.1136 36.0387 28.7292C35.2176 29.3447 34.5525 30.1366 34.095 31.0434C33.6374 31.9502 33.3997 32.9476 33.4001 33.9585C33.4001 34.0971 33.406 34.2344 33.4147 34.3709C29.9109 35.5788 26.0893 35.5788 22.5856 34.3709C22.5942 34.2344 22.6001 34.0971 22.6001 33.9585C22.6006 32.9476 22.3628 31.9502 21.9053 31.0434C21.4477 30.1366 20.7826 29.3447 19.9615 28.7292C19.1404 28.1136 18.1852 27.6908 17.1699 27.4935C16.1546 27.2962 15.1065 27.3297 14.1066 27.5914C12.5928 25.1359 11.7952 22.3229 11.8 19.4568V19.4568ZM15.8501 30.0035C16.9242 30.0035 17.9543 30.4202 18.7139 31.1619C19.4734 31.9036 19.9001 32.9096 19.9001 33.9585C19.9001 35.0075 19.4734 36.0134 18.7139 36.7551C17.9543 37.4969 16.9242 37.9135 15.8501 37.9135C15.7584 37.9135 15.6672 37.9085 15.5762 37.9024C14.1625 36.5228 12.912 34.9923 11.8485 33.3398C12 32.4097 12.4861 31.5628 13.2195 30.9513C13.953 30.3398 14.8857 30.0038 15.8501 30.0035V30.0035ZM40.424 37.9024C40.3331 37.9085 40.2418 37.9135 40.1502 37.9135C39.3763 37.9133 38.6187 37.6965 37.967 37.2888C37.3154 36.8812 36.797 36.2998 36.4732 35.6134C36.1494 34.927 36.0337 34.1643 36.1399 33.4158C36.2461 32.6672 36.5697 31.964 37.0724 31.3894C37.5751 30.8148 38.2359 30.3929 38.9765 30.1736C39.7171 29.9544 40.5065 29.9469 41.2513 30.1521C41.9961 30.3573 42.6651 30.7666 43.1791 31.3315C43.6932 31.8964 44.0307 32.5934 44.1518 33.3398C43.0882 34.9923 41.8378 36.5228 40.424 37.9024V37.9024ZM10.8549 10.5505C11.2923 10.1252 11.743 9.71842 12.2071 9.3301C10.2731 12.2015 9.19918 15.5435 9.10657 18.9791C9.01397 22.4148 9.90635 25.8073 11.683 28.774C11.1017 29.22 10.5989 29.7558 10.1944 30.3601C8.58301 26.9406 7.74909 23.2209 7.75003 19.4568V14.237C8.65684 12.9103 9.69697 11.6754 10.8549 10.5505V10.5505ZM33.1312 74.8729C31.6028 75.847 29.8169 76.3649 27.9918 76.3633C26.1668 76.3617 24.3818 75.8407 22.8552 74.8641C20.1346 73.1258 14.9249 68.9497 10.6005 60.511C6.02165 51.5756 3.70001 40.4243 3.70001 27.3668C3.69669 24.6991 4.15346 22.0498 5.05117 19.5303C5.06104 24.2011 6.23852 28.799 8.48134 32.9245C10.7242 37.05 13.9645 40.5784 17.9209 43.2032L27.1112 49.306C30.5995 51.6201 33.4764 54.7086 35.506 58.3184C37.5357 61.9282 38.6603 65.9563 38.7876 70.0726C37.1154 71.8977 35.2151 73.5105 33.1312 74.8729V74.8729ZM45.3567 60.591C44.1838 62.8872 42.8098 65.08 41.2501 67.145C40.2592 59.729 36.3412 52.9843 30.3313 48.3487L38.0793 43.2032C42.0106 40.5948 45.2351 37.0939 47.4762 33.0009C49.7173 28.908 50.9081 24.3451 50.9463 19.7039C51.8511 22.255 52.3087 24.9368 52.2999 27.6365C52.2678 40.6166 49.9318 51.7041 45.3567 60.591V60.591Z" fill="#22BAC9" stroke="#22BAC9"/>
<path d="M19.2502 17.7145C19.5504 17.7137 19.8478 17.7724 20.1252 17.8873C20.4026 18.0022 20.6545 18.171 20.8662 18.3839C21.1006 18.6183 21.4186 18.75 21.7501 18.75C22.0816 18.7501 22.3996 18.6184 22.634 18.384C22.8685 18.1495 23.0002 17.8316 23.0002 17.5001C23.0002 17.1685 22.8685 16.8506 22.6341 16.6161C21.7367 15.7187 20.5194 15.2145 19.2503 15.2145C17.9811 15.2145 16.7638 15.7186 15.8664 16.6161C15.7502 16.7321 15.658 16.8699 15.595 17.0216C15.5321 17.1733 15.4997 17.3359 15.4996 17.5001C15.4996 17.6643 15.5319 17.8269 15.5947 17.9786C15.6575 18.1304 15.7496 18.2682 15.8657 18.3844C15.9818 18.5005 16.1196 18.5926 16.2713 18.6554C16.4231 18.7183 16.5857 18.7506 16.7499 18.7505C16.9141 18.7505 17.0767 18.7181 17.2284 18.6552C17.3801 18.5923 17.5179 18.5001 17.6339 18.384C17.8457 18.171 18.0976 18.0022 18.375 17.8873C18.6524 17.7724 18.9499 17.7137 19.2502 17.7145V17.7145Z" fill="#22BAC9"/>
<path d="M35.1339 18.384C35.3462 18.1717 35.5981 18.0034 35.8754 17.8885C36.1527 17.7736 36.4499 17.7145 36.7501 17.7145C37.0502 17.7145 37.3474 17.7736 37.6247 17.8884C37.902 18.0033 38.154 18.1716 38.3662 18.3839C38.6006 18.6183 38.9186 18.75 39.2501 18.75C39.5816 18.7501 39.8996 18.6184 40.134 18.384C40.3685 18.1495 40.5002 17.8316 40.5002 17.5001C40.5002 17.1685 40.3685 16.8506 40.1341 16.6161C39.2367 15.7187 38.0194 15.2145 36.7502 15.2145C35.4811 15.2145 34.2638 15.7186 33.3664 16.6161C33.2502 16.7321 33.158 16.8699 33.095 17.0216C33.0321 17.1733 32.9997 17.3359 32.9996 17.5001C32.9996 17.6643 33.0319 17.8269 33.0947 17.9786C33.1575 18.1304 33.2496 18.2682 33.3657 18.3844C33.4818 18.5005 33.6196 18.5926 33.7713 18.6554C33.9231 18.7183 34.0857 18.7506 34.2499 18.7505C34.4141 18.7505 34.5767 18.7181 34.7284 18.6552C34.8801 18.5923 35.0179 18.5001 35.1339 18.384V18.384Z" fill="#22BAC9"/>
<path d="M26.7495 21.25C26.9137 21.2502 27.0763 21.2179 27.2281 21.1551C27.3798 21.0922 27.5176 21 27.6336 20.8838C27.7306 20.7867 27.8622 20.7322 27.9995 20.7322C28.1367 20.7322 28.2683 20.7867 28.3654 20.8837C28.4814 20.9998 28.6192 21.0919 28.7709 21.1547C28.9225 21.2175 29.0851 21.2499 29.2492 21.2499C29.4134 21.2499 29.5759 21.2176 29.7276 21.1548C29.8792 21.092 30.017 20.9999 30.1331 20.8838C30.2492 20.7678 30.3413 20.63 30.4041 20.4784C30.4669 20.3267 30.4993 20.1642 30.4993 20C30.4993 19.8359 30.467 19.6733 30.4042 19.5217C30.3414 19.37 30.2493 19.2322 30.1333 19.1161C29.8531 18.8359 29.5204 18.6136 29.1542 18.4619C28.7881 18.3102 28.3957 18.2322 27.9994 18.2322C27.6031 18.2322 27.2107 18.3103 26.8445 18.4619C26.4784 18.6136 26.1457 18.8359 25.8655 19.1162C25.6908 19.291 25.5718 19.5137 25.5236 19.7562C25.4754 19.9987 25.5001 20.25 25.5947 20.4784C25.6894 20.7067 25.8496 20.9019 26.0551 21.0393C26.2606 21.1766 26.5023 21.25 26.7495 21.25V21.25Z" fill="#22BAC9"/>
<path d="M23.8547 26.1858C26.5464 27.077 29.4536 27.077 32.1453 26.1858C32.301 26.1339 32.445 26.0518 32.569 25.9443C32.693 25.8367 32.7946 25.7058 32.868 25.559C32.9414 25.4121 32.9852 25.2523 32.9968 25.0885C33.0084 24.9248 32.9877 24.7604 32.9358 24.6047C32.8839 24.4489 32.8018 24.3049 32.6942 24.1809C32.5867 24.0569 32.4557 23.9553 32.3089 23.8819C32.1621 23.8085 32.0022 23.7648 31.8385 23.7531C31.6747 23.7415 31.5103 23.7623 31.3546 23.8142C29.1762 24.5353 26.8235 24.5353 24.6451 23.8142C24.4894 23.7623 24.325 23.7416 24.1612 23.7532C23.9975 23.7648 23.8377 23.8086 23.6909 23.882C23.5441 23.9555 23.4131 24.0571 23.3056 24.1811C23.1981 24.3051 23.116 24.4491 23.0641 24.6048C23.0122 24.7605 22.9915 24.925 23.0031 25.0887C23.0148 25.2524 23.0585 25.4123 23.132 25.5591C23.2054 25.7059 23.307 25.8368 23.431 25.9443C23.555 26.0519 23.699 26.1339 23.8547 26.1858Z" fill="#22BAC9"/>
</svg>
