<svg width="42" height="60" viewBox="0 0 42 60" fill="none" xmlns="http://www.w3.org/2000/svg">
<path d="M20.2969 41.1328H21.7031C28.4879 41.1328 34.0078 35.6129 34.0078 28.8281V12.4219C34.0078 5.57238 28.4879 0 21.7031 0H20.2969C13.5196 0 8.00438 5.56031 7.99219 12.3994V28.8281C7.99219 35.6129 13.5121 41.1328 20.2969 41.1328ZM20.2969 3.51562H21.7031C26.197 3.51562 29.9118 6.9518 30.4284 11.3672H27.5625C26.5917 11.3672 25.8047 12.1542 25.8047 13.125C25.8047 14.0958 26.5917 14.8828 27.5625 14.8828H30.4922V18.8672H25.6875C24.7167 18.8672 23.9297 19.6542 23.9297 20.625C23.9297 21.5958 24.7167 22.3828 25.6875 22.3828H30.4922V26.3672H27.5625C26.5917 26.3672 25.8047 27.1542 25.8047 28.125C25.8047 29.0958 26.5917 29.8828 27.5625 29.8828H30.4267C29.9037 34.2334 26.1923 37.6172 21.7031 37.6172H20.2969C15.8078 37.6172 12.0963 34.2334 11.5733 29.8828H14.4375C15.4083 29.8828 16.1953 29.0958 16.1953 28.125C16.1953 27.1542 15.4083 26.3672 14.4375 26.3672H11.5078V22.3828H16.3125C17.2833 22.3828 18.0703 21.5958 18.0703 20.625C18.0703 19.6542 17.2833 18.8672 16.3125 18.8672H11.5078V14.8828H14.4375C15.4083 14.8828 16.1953 14.0958 16.1953 13.125C16.1953 12.1542 15.4083 11.3672 14.4375 11.3672H11.5716C12.0882 6.9518 15.803 3.51562 20.2969 3.51562Z" fill="#404040"/>
<path d="M41.5078 28.125C41.5078 27.1542 40.7208 26.3672 39.75 26.3672C38.7792 26.3672 37.9922 27.1542 37.9922 28.125C37.9922 37.4945 30.3695 45.1172 21 45.1172C11.6305 45.1172 4.00781 37.4945 4.00781 28.125C4.00781 27.1542 3.22078 26.3672 2.25 26.3672C1.27922 26.3672 0.492188 27.1542 0.492188 28.125C0.492188 38.8409 8.75402 47.662 19.2422 48.5566V56.4844H9.75C8.77922 56.4844 7.99219 57.2714 7.99219 58.2422C7.99219 59.213 8.77922 60 9.75 60H32.25C33.2208 60 34.0078 59.213 34.0078 58.2422C34.0078 57.2714 33.2208 56.4844 32.25 56.4844H22.7578V48.5566C33.246 47.662 41.5078 38.8409 41.5078 28.125Z" fill="#404040"/>
</svg>
